<mxfile host="www.draw.io" modified="2019-11-28T09:18:25.326Z" agent="Mozilla/5.0 (Windows NT 10.0; Win64; x64) AppleWebKit/537.36 (KHTML, like Gecko) Chrome/69.0.3497.92 Safari/537.36" etag="URZEZOxin2p0RwhStZKE" version="12.3.3" type="github" pages="1">
  <diagram id="vKNMBzjib7ub46ExpTRq" name="Page-1">
    <mxGraphModel dx="1024" dy="571" grid="1" gridSize="10" guides="1" tooltips="1" connect="1" arrows="1" fold="1" page="1" pageScale="1" pageWidth="827" pageHeight="1169" math="0" shadow="0">
      <root>
        <mxCell id="0"/>
        <mxCell id="1" parent="0"/>
        <mxCell id="-UwqAHOPOND0Zr8k3zHj-1" value="" style="rounded=1;whiteSpace=wrap;html=1;fontSize=20;labelBackgroundColor=none;fontColor=#000000;dashed=1;" vertex="1" parent="1">
          <mxGeometry x="200" y="330" width="510" height="140" as="geometry"/>
        </mxCell>
        <mxCell id="-UwqAHOPOND0Zr8k3zHj-20" style="edgeStyle=orthogonalEdgeStyle;rounded=0;orthogonalLoop=1;jettySize=auto;html=1;exitX=1;exitY=0.5;exitDx=0;exitDy=0;" edge="1" parent="1" source="-UwqAHOPOND0Zr8k3zHj-18">
          <mxGeometry relative="1" as="geometry">
            <mxPoint x="320" y="400" as="targetPoint"/>
          </mxGeometry>
        </mxCell>
        <mxCell id="-UwqAHOPOND0Zr8k3zHj-18" value="" style="rounded=0;whiteSpace=wrap;html=1;fillColor=#fff2cc;strokeColor=#d6b656;" vertex="1" parent="1">
          <mxGeometry x="230" y="360" width="40" height="80" as="geometry"/>
        </mxCell>
        <mxCell id="-UwqAHOPOND0Zr8k3zHj-19" value="&lt;font style=&quot;font-size: 18px&quot;&gt;Deconv&lt;/font&gt;" style="text;html=1;strokeColor=none;fillColor=none;align=center;verticalAlign=middle;whiteSpace=wrap;rounded=0;rotation=-90;" vertex="1" parent="1">
          <mxGeometry x="230" y="390" width="40" height="20" as="geometry"/>
        </mxCell>
        <mxCell id="-UwqAHOPOND0Zr8k3zHj-37" value="" style="edgeStyle=orthogonalEdgeStyle;rounded=0;orthogonalLoop=1;jettySize=auto;html=1;" edge="1" parent="1" source="-UwqAHOPOND0Zr8k3zHj-21" target="-UwqAHOPOND0Zr8k3zHj-28">
          <mxGeometry relative="1" as="geometry"/>
        </mxCell>
        <mxCell id="-UwqAHOPOND0Zr8k3zHj-21" value="" style="rounded=0;whiteSpace=wrap;html=1;fillColor=#e1d5e7;strokeColor=#9673a6;" vertex="1" parent="1">
          <mxGeometry x="320" y="360" width="120" height="80" as="geometry"/>
        </mxCell>
        <mxCell id="-UwqAHOPOND0Zr8k3zHj-22" value="&lt;font style=&quot;font-size: 18px&quot;&gt;concatenate&lt;/font&gt;" style="text;html=1;strokeColor=none;fillColor=none;align=center;verticalAlign=middle;whiteSpace=wrap;rounded=0;" vertex="1" parent="1">
          <mxGeometry x="345" y="385" width="70" height="30" as="geometry"/>
        </mxCell>
        <mxCell id="-UwqAHOPOND0Zr8k3zHj-28" value="" style="rounded=0;whiteSpace=wrap;html=1;fillColor=#fff2cc;strokeColor=#d6b656;" vertex="1" parent="1">
          <mxGeometry x="481" y="360" width="40" height="80" as="geometry"/>
        </mxCell>
        <mxCell id="-UwqAHOPOND0Zr8k3zHj-29" value="Conv3" style="text;html=1;strokeColor=none;fillColor=none;align=center;verticalAlign=middle;whiteSpace=wrap;rounded=0;rotation=-90;fontSize=20;" vertex="1" parent="1">
          <mxGeometry x="481" y="390" width="40" height="20" as="geometry"/>
        </mxCell>
        <mxCell id="-UwqAHOPOND0Zr8k3zHj-30" style="edgeStyle=orthogonalEdgeStyle;rounded=0;orthogonalLoop=1;jettySize=auto;html=1;exitX=1;exitY=0.5;exitDx=0;exitDy=0;fontSize=20;fontColor=#000000;" edge="1" source="-UwqAHOPOND0Zr8k3zHj-31" parent="1">
          <mxGeometry relative="1" as="geometry">
            <mxPoint x="601" y="400" as="targetPoint"/>
          </mxGeometry>
        </mxCell>
        <mxCell id="-UwqAHOPOND0Zr8k3zHj-31" value="" style="rounded=0;whiteSpace=wrap;html=1;fillColor=#cdeb8b;strokeColor=#36393d;" vertex="1" parent="1">
          <mxGeometry x="521" y="360" width="40" height="80" as="geometry"/>
        </mxCell>
        <mxCell id="-UwqAHOPOND0Zr8k3zHj-32" value="PReLU" style="text;html=1;strokeColor=none;fillColor=none;align=center;verticalAlign=middle;whiteSpace=wrap;rounded=0;rotation=-90;fontSize=20;" vertex="1" parent="1">
          <mxGeometry x="521" y="390" width="40" height="20" as="geometry"/>
        </mxCell>
        <mxCell id="-UwqAHOPOND0Zr8k3zHj-33" value="" style="rounded=0;whiteSpace=wrap;html=1;fillColor=#fff2cc;strokeColor=#d6b656;" vertex="1" parent="1">
          <mxGeometry x="601" y="360" width="40" height="80" as="geometry"/>
        </mxCell>
        <mxCell id="-UwqAHOPOND0Zr8k3zHj-34" value="Conv3" style="text;html=1;strokeColor=none;fillColor=none;align=center;verticalAlign=middle;whiteSpace=wrap;rounded=0;rotation=-90;fontSize=20;" vertex="1" parent="1">
          <mxGeometry x="601" y="390" width="40" height="20" as="geometry"/>
        </mxCell>
        <mxCell id="-UwqAHOPOND0Zr8k3zHj-40" style="edgeStyle=orthogonalEdgeStyle;rounded=0;orthogonalLoop=1;jettySize=auto;html=1;exitX=1;exitY=0.5;exitDx=0;exitDy=0;" edge="1" parent="1" source="-UwqAHOPOND0Zr8k3zHj-35">
          <mxGeometry relative="1" as="geometry">
            <mxPoint x="740" y="400" as="targetPoint"/>
          </mxGeometry>
        </mxCell>
        <mxCell id="-UwqAHOPOND0Zr8k3zHj-35" value="" style="rounded=0;whiteSpace=wrap;html=1;fillColor=#cdeb8b;strokeColor=#36393d;" vertex="1" parent="1">
          <mxGeometry x="641" y="360" width="39" height="80" as="geometry"/>
        </mxCell>
        <mxCell id="-UwqAHOPOND0Zr8k3zHj-36" value="PReLU" style="text;html=1;strokeColor=none;fillColor=none;align=center;verticalAlign=middle;whiteSpace=wrap;rounded=0;rotation=-90;fontSize=20;" vertex="1" parent="1">
          <mxGeometry x="641" y="390" width="40" height="20" as="geometry"/>
        </mxCell>
        <mxCell id="-UwqAHOPOND0Zr8k3zHj-42" value="" style="edgeStyle=orthogonalEdgeStyle;rounded=0;orthogonalLoop=1;jettySize=auto;html=1;" edge="1" parent="1" target="-UwqAHOPOND0Zr8k3zHj-19">
          <mxGeometry relative="1" as="geometry">
            <mxPoint x="170" y="400" as="sourcePoint"/>
          </mxGeometry>
        </mxCell>
        <mxCell id="-UwqAHOPOND0Zr8k3zHj-43" value="&lt;font style=&quot;font-size: 18px&quot;&gt;In&lt;/font&gt;" style="text;html=1;strokeColor=none;fillColor=none;align=center;verticalAlign=middle;whiteSpace=wrap;rounded=0;" vertex="1" parent="1">
          <mxGeometry x="170" y="375" width="40" height="20" as="geometry"/>
        </mxCell>
        <mxCell id="-UwqAHOPOND0Zr8k3zHj-45" value="" style="edgeStyle=orthogonalEdgeStyle;rounded=0;orthogonalLoop=1;jettySize=auto;html=1;" edge="1" parent="1" source="-UwqAHOPOND0Zr8k3zHj-44" target="-UwqAHOPOND0Zr8k3zHj-21">
          <mxGeometry relative="1" as="geometry"/>
        </mxCell>
        <mxCell id="-UwqAHOPOND0Zr8k3zHj-44" value="" style="rounded=0;whiteSpace=wrap;html=1;" vertex="1" parent="1">
          <mxGeometry x="320" y="240" width="120" height="60" as="geometry"/>
        </mxCell>
        <mxCell id="-UwqAHOPOND0Zr8k3zHj-46" value="&lt;span style=&quot;color: rgb(51 , 51 , 51) ; font-family: &amp;#34;arial&amp;#34; , &amp;#34;microsoft yahei&amp;#34; , &amp;#34;\\5fae软雅黑&amp;#34; , &amp;#34;\\5b8b体&amp;#34; , &amp;#34;malgun gothic&amp;#34; , &amp;#34;meiryo&amp;#34; , sans-serif ; font-size: 13.6px ; line-height: 16.8px ; text-align: left ; background-color: rgb(255 , 255 , 255)&quot;&gt;Feature Extraction&lt;/span&gt;" style="text;html=1;strokeColor=none;fillColor=none;align=center;verticalAlign=middle;whiteSpace=wrap;rounded=0;" vertex="1" parent="1">
          <mxGeometry x="330" y="245" width="100" height="50" as="geometry"/>
        </mxCell>
      </root>
    </mxGraphModel>
  </diagram>
</mxfile>
